<?xml version="1.0" encoding="utf-8"?>
<!-- Generator: Adobe Illustrator 15.1.0, SVG Export Plug-In . SVG Version: 6.00 Build 0)  -->
<!DOCTYPE svg PUBLIC "-//W3C//DTD SVG 1.1//EN" "http://www.w3.org/Graphics/SVG/1.1/DTD/svg11.dtd">
<svg version="1.1" id="Layer_1" xmlns="http://www.w3.org/2000/svg" xmlns:xlink="http://www.w3.org/1999/xlink" x="0px" y="0px"
	 width="48px" height="48px" viewBox="0 0 48 48" enable-background="new 0 0 48 48" xml:space="preserve">
<path fill="#1DBEDD" d="M24,7.2c-0.607,0-1.208,0.105-1.777,0.307L1.185,15.105C0.473,15.368,0,16.042,0,16.8
	c0,0.758,0.473,1.433,1.185,1.695l4.342,1.567c-1.23,1.935-1.927,4.223-1.927,6.63V28.8c0,2.13-0.81,4.327-1.672,6.06
	c-0.488,0.976-1.043,1.936-1.688,2.82C0,38.002-0.067,38.422,0.067,38.805c0.135,0.383,0.45,0.668,0.84,0.766l4.8,1.199
	c0.315,0.083,0.652,0.023,0.93-0.149c0.277-0.173,0.472-0.458,0.532-0.78c0.645-3.21,0.323-6.09-0.157-8.152
	C6.772,30.623,6.45,29.535,6,28.537v-1.845c0-2.265,0.765-4.402,2.092-6.112c0.968-1.163,2.22-2.1,3.69-2.678l11.775-4.627
	c0.615-0.24,1.313,0.06,1.552,0.675c0.24,0.615-0.06,1.313-0.674,1.552L12.66,20.13c-0.93,0.368-1.748,0.93-2.415,1.62l11.97,4.32
	c0.57,0.202,1.17,0.307,1.778,0.307c0.607,0,1.208-0.104,1.777-0.307l21.045-7.575C47.527,18.24,48,17.558,48,16.8
	c0-0.757-0.473-1.432-1.186-1.695L25.777,7.507C25.207,7.305,24.607,7.2,24,7.2z M9.6,35.4c0,2.646,6.45,5.399,14.4,5.399
	s14.4-2.753,14.4-5.399l-1.148-10.905L26.588,28.35C25.755,28.65,24.877,28.8,24,28.8c-0.877,0-1.763-0.149-2.587-0.45
	l-10.665-3.854L9.6,35.4z"/>
</svg>
