<?xml version="1.0" encoding="utf-8"?>
<!-- Generator: Adobe Illustrator 15.1.0, SVG Export Plug-In . SVG Version: 6.00 Build 0)  -->
<!DOCTYPE svg PUBLIC "-//W3C//DTD SVG 1.1//EN" "http://www.w3.org/Graphics/SVG/1.1/DTD/svg11.dtd">
<svg version="1.1" id="Layer_1" xmlns="http://www.w3.org/2000/svg" xmlns:xlink="http://www.w3.org/1999/xlink" x="0px" y="0px"
	 width="48px" height="48px" viewBox="0 0 48 48" enable-background="new 0 0 48 48" xml:space="preserve">
<path fill="#1DBEDD" d="M19.513,10.25h10.25c0.314,0,0.571,0.256,0.571,0.569v2.847h-11.39v-2.847
	C18.944,10.506,19.2,10.25,19.513,10.25z M15.527,10.819v2.847h-4.556c-2.513,0-4.556,2.043-4.556,4.556v6.834h13.667h9.111h13.668
	v-6.834c0-2.512-2.043-4.556-4.557-4.556h-4.556v-2.847c0-2.2-1.786-3.986-3.986-3.986h-10.25
	C17.313,6.833,15.527,8.62,15.527,10.819z M42.861,27.334H29.193v2.276c0,1.261-1.018,2.277-2.277,2.277H22.36
	c-1.26,0-2.278-1.017-2.278-2.277v-2.276H6.416v9.11c0,2.513,2.043,4.555,4.556,4.555h27.333c2.514,0,4.557-2.042,4.557-4.555
	V27.334z"/>
</svg>
